<mxfile host="app.diagrams.net" agent="Mozilla/5.0 (Windows NT 10.0; Win64; x64) AppleWebKit/537.36 (KHTML, like Gecko) Chrome/131.0.0.0 Safari/537.36" version="25.0.1">
  <diagram name="Page-1" id="ATfXu8jkNSImCt0j8Cfg">
    <mxGraphModel dx="1956" dy="2258" grid="1" gridSize="10" guides="1" tooltips="1" connect="1" arrows="1" fold="1" page="1" pageScale="1" pageWidth="850" pageHeight="1100" math="0" shadow="0">
      <root>
        <mxCell id="0" />
        <mxCell id="1" parent="0" />
        <mxCell id="P-7HhU2dx_47wgBdvO1a-7" value="" style="rounded=0;whiteSpace=wrap;html=1;fillColor=none;strokeWidth=5;" vertex="1" parent="1">
          <mxGeometry x="230" y="-40" width="530" height="730" as="geometry" />
        </mxCell>
        <mxCell id="1GnM5Je0mjcqMMnKxtjH-3" value="&lt;b&gt;Token Request&lt;/b&gt;" style="ellipse;whiteSpace=wrap;html=1;" parent="1" vertex="1">
          <mxGeometry x="330" width="120" height="80" as="geometry" />
        </mxCell>
        <mxCell id="1GnM5Je0mjcqMMnKxtjH-4" value="&lt;b&gt;Vote casting&lt;/b&gt;" style="ellipse;whiteSpace=wrap;html=1;" parent="1" vertex="1">
          <mxGeometry x="330" y="120" width="120" height="80" as="geometry" />
        </mxCell>
        <mxCell id="1GnM5Je0mjcqMMnKxtjH-6" value="&lt;b&gt;Vote proving&lt;/b&gt;" style="ellipse;whiteSpace=wrap;html=1;" parent="1" vertex="1">
          <mxGeometry x="310" y="460" width="120" height="80" as="geometry" />
        </mxCell>
        <mxCell id="1GnM5Je0mjcqMMnKxtjH-8" value="" style="endArrow=none;html=1;rounded=0;entryX=0;entryY=0.5;entryDx=0;entryDy=0;" parent="1" target="1GnM5Je0mjcqMMnKxtjH-3" edge="1">
          <mxGeometry width="50" height="50" relative="1" as="geometry">
            <mxPoint x="70" y="380" as="sourcePoint" />
            <mxPoint x="210" y="360" as="targetPoint" />
          </mxGeometry>
        </mxCell>
        <mxCell id="1GnM5Je0mjcqMMnKxtjH-11" value="" style="endArrow=none;html=1;rounded=0;entryX=0;entryY=0.5;entryDx=0;entryDy=0;" parent="1" target="1GnM5Je0mjcqMMnKxtjH-4" edge="1">
          <mxGeometry width="50" height="50" relative="1" as="geometry">
            <mxPoint x="71" y="380" as="sourcePoint" />
            <mxPoint x="190" y="460" as="targetPoint" />
          </mxGeometry>
        </mxCell>
        <mxCell id="1GnM5Je0mjcqMMnKxtjH-13" value="" style="endArrow=none;html=1;rounded=0;exitX=0;exitY=0.5;exitDx=0;exitDy=0;" parent="1" source="1GnM5Je0mjcqMMnKxtjH-6" edge="1">
          <mxGeometry width="50" height="50" relative="1" as="geometry">
            <mxPoint x="150" y="620" as="sourcePoint" />
            <mxPoint x="71" y="380" as="targetPoint" />
          </mxGeometry>
        </mxCell>
        <mxCell id="P-7HhU2dx_47wgBdvO1a-6" value="&lt;b&gt;&lt;font style=&quot;font-size: 16px;&quot;&gt;Voter&lt;/font&gt;&lt;/b&gt;" style="shape=umlActor;verticalLabelPosition=bottom;verticalAlign=top;html=1;outlineConnect=0;" vertex="1" parent="1">
          <mxGeometry x="22" y="347" width="43" height="68" as="geometry" />
        </mxCell>
        <mxCell id="P-7HhU2dx_47wgBdvO1a-10" value="&lt;b&gt;&lt;font style=&quot;font-size: 21px;&quot;&gt;Voting services&lt;/font&gt;&lt;/b&gt;" style="text;html=1;align=center;verticalAlign=middle;whiteSpace=wrap;rounded=0;" vertex="1" parent="1">
          <mxGeometry x="230" y="-80" width="520" height="30" as="geometry" />
        </mxCell>
        <mxCell id="P-7HhU2dx_47wgBdvO1a-23" value="&lt;b&gt;&lt;font style=&quot;font-size: 16px;&quot;&gt;Token generator&lt;/font&gt;&lt;/b&gt;" style="rounded=0;whiteSpace=wrap;html=1;" vertex="1" parent="1">
          <mxGeometry x="920" y="10" width="120" height="60" as="geometry" />
        </mxCell>
        <mxCell id="P-7HhU2dx_47wgBdvO1a-24" value="" style="endArrow=none;html=1;rounded=0;exitX=1;exitY=0.5;exitDx=0;exitDy=0;entryX=0;entryY=0.5;entryDx=0;entryDy=0;" edge="1" parent="1" source="1GnM5Je0mjcqMMnKxtjH-3" target="P-7HhU2dx_47wgBdvO1a-23">
          <mxGeometry width="50" height="50" relative="1" as="geometry">
            <mxPoint x="510" y="300" as="sourcePoint" />
            <mxPoint x="650" y="320" as="targetPoint" />
          </mxGeometry>
        </mxCell>
        <mxCell id="P-7HhU2dx_47wgBdvO1a-25" value="&lt;b&gt;&lt;font style=&quot;font-size: 16px;&quot;&gt;Blockchain&lt;/font&gt;&lt;/b&gt;" style="rounded=0;whiteSpace=wrap;html=1;" vertex="1" parent="1">
          <mxGeometry x="920" y="120" width="120" height="60" as="geometry" />
        </mxCell>
        <mxCell id="P-7HhU2dx_47wgBdvO1a-26" value="" style="endArrow=none;html=1;rounded=0;exitX=1;exitY=0.5;exitDx=0;exitDy=0;entryX=0;entryY=0.5;entryDx=0;entryDy=0;" edge="1" parent="1" source="1GnM5Je0mjcqMMnKxtjH-4" target="P-7HhU2dx_47wgBdvO1a-25">
          <mxGeometry width="50" height="50" relative="1" as="geometry">
            <mxPoint x="520" y="430" as="sourcePoint" />
            <mxPoint x="650" y="430" as="targetPoint" />
          </mxGeometry>
        </mxCell>
        <mxCell id="P-7HhU2dx_47wgBdvO1a-29" value="" style="endArrow=none;html=1;rounded=0;exitX=1;exitY=0.5;exitDx=0;exitDy=0;entryX=0;entryY=0.5;entryDx=0;entryDy=0;" edge="1" parent="1" source="1GnM5Je0mjcqMMnKxtjH-6" target="P-7HhU2dx_47wgBdvO1a-25">
          <mxGeometry width="50" height="50" relative="1" as="geometry">
            <mxPoint x="510" y="650" as="sourcePoint" />
            <mxPoint x="650" y="430" as="targetPoint" />
          </mxGeometry>
        </mxCell>
        <mxCell id="P-7HhU2dx_47wgBdvO1a-39" value="&lt;b&gt;public-private key&amp;nbsp;&lt;/b&gt;&lt;div&gt;&lt;b&gt;generator&lt;/b&gt;&lt;/div&gt;" style="ellipse;whiteSpace=wrap;html=1;" vertex="1" parent="1">
          <mxGeometry x="550" y="190" width="120" height="80" as="geometry" />
        </mxCell>
        <mxCell id="P-7HhU2dx_47wgBdvO1a-40" value="" style="endArrow=none;dashed=1;html=1;rounded=0;entryX=0;entryY=0.5;entryDx=0;entryDy=0;exitX=0.5;exitY=1;exitDx=0;exitDy=0;" edge="1" parent="1" source="1GnM5Je0mjcqMMnKxtjH-4" target="P-7HhU2dx_47wgBdvO1a-39">
          <mxGeometry width="50" height="50" relative="1" as="geometry">
            <mxPoint x="469.52388716335486" y="218.00490566104895" as="sourcePoint" />
            <mxPoint x="430" y="230" as="targetPoint" />
          </mxGeometry>
        </mxCell>
        <mxCell id="P-7HhU2dx_47wgBdvO1a-43" value="&lt;div&gt;&lt;b&gt;smart contract sign&lt;/b&gt;&lt;/div&gt;" style="ellipse;whiteSpace=wrap;html=1;" vertex="1" parent="1">
          <mxGeometry x="490" y="300" width="120" height="80" as="geometry" />
        </mxCell>
        <mxCell id="P-7HhU2dx_47wgBdvO1a-44" value="" style="endArrow=none;dashed=1;html=1;rounded=0;exitX=0.458;exitY=0.007;exitDx=0;exitDy=0;exitPerimeter=0;entryX=0.5;entryY=1;entryDx=0;entryDy=0;" edge="1" parent="1" source="P-7HhU2dx_47wgBdvO1a-43" target="1GnM5Je0mjcqMMnKxtjH-4">
          <mxGeometry width="50" height="50" relative="1" as="geometry">
            <mxPoint x="330" y="290" as="sourcePoint" />
            <mxPoint x="400" y="200" as="targetPoint" />
          </mxGeometry>
        </mxCell>
        <mxCell id="P-7HhU2dx_47wgBdvO1a-45" value="include" style="text;html=1;align=center;verticalAlign=middle;whiteSpace=wrap;rounded=0;rotation=36;" vertex="1" parent="1">
          <mxGeometry x="445" y="260" width="60" height="30" as="geometry" />
        </mxCell>
        <mxCell id="P-7HhU2dx_47wgBdvO1a-47" value="include" style="text;html=1;align=center;verticalAlign=middle;whiteSpace=wrap;rounded=0;rotation=10;" vertex="1" parent="1">
          <mxGeometry x="450" y="190" width="60" height="30" as="geometry" />
        </mxCell>
        <mxCell id="P-7HhU2dx_47wgBdvO1a-48" value="&lt;div&gt;&lt;b&gt;ZKP generator&lt;/b&gt;&lt;/div&gt;" style="ellipse;whiteSpace=wrap;html=1;" vertex="1" parent="1">
          <mxGeometry x="310" y="320" width="120" height="80" as="geometry" />
        </mxCell>
        <mxCell id="P-7HhU2dx_47wgBdvO1a-49" value="" style="endArrow=none;dashed=1;html=1;rounded=0;entryX=0.5;entryY=1;entryDx=0;entryDy=0;exitX=0.5;exitY=0;exitDx=0;exitDy=0;" edge="1" parent="1" source="P-7HhU2dx_47wgBdvO1a-48" target="1GnM5Je0mjcqMMnKxtjH-4">
          <mxGeometry width="50" height="50" relative="1" as="geometry">
            <mxPoint x="340" y="300" as="sourcePoint" />
            <mxPoint x="390" y="250" as="targetPoint" />
          </mxGeometry>
        </mxCell>
        <mxCell id="P-7HhU2dx_47wgBdvO1a-50" value="include" style="text;html=1;align=center;verticalAlign=middle;whiteSpace=wrap;rounded=0;rotation=-80;" vertex="1" parent="1">
          <mxGeometry x="330" y="260" width="60" height="30" as="geometry" />
        </mxCell>
        <mxCell id="P-7HhU2dx_47wgBdvO1a-51" value="&lt;div&gt;&lt;b&gt;ZKSMP prover&lt;/b&gt;&lt;/div&gt;" style="ellipse;whiteSpace=wrap;html=1;" vertex="1" parent="1">
          <mxGeometry x="480" y="580" width="120" height="80" as="geometry" />
        </mxCell>
        <mxCell id="P-7HhU2dx_47wgBdvO1a-52" value="" style="endArrow=none;dashed=1;html=1;rounded=0;entryX=0.468;entryY=0.995;entryDx=0;entryDy=0;entryPerimeter=0;exitX=0;exitY=0.5;exitDx=0;exitDy=0;" edge="1" parent="1" source="P-7HhU2dx_47wgBdvO1a-51" target="1GnM5Je0mjcqMMnKxtjH-6">
          <mxGeometry width="50" height="50" relative="1" as="geometry">
            <mxPoint x="370" y="640" as="sourcePoint" />
            <mxPoint x="420" y="590" as="targetPoint" />
          </mxGeometry>
        </mxCell>
        <mxCell id="P-7HhU2dx_47wgBdvO1a-53" value="include" style="text;html=1;align=center;verticalAlign=middle;whiteSpace=wrap;rounded=0;rotation=30;" vertex="1" parent="1">
          <mxGeometry x="390" y="580" width="60" height="30" as="geometry" />
        </mxCell>
      </root>
    </mxGraphModel>
  </diagram>
</mxfile>
